{
  "accessors": [
    {
      "bufferView": 2,
      "componentType": 5126,
      "count": 31391,
      "max": [
        2.1710000038146973,
        4.204899787902832,
        -8.674300193786621
      ],
      "min": [
        -1.7378000020980835,
        0.013299999758601189,
        -18.492799758911133
      ],
      "type": "VEC3"
    },
    {
      "bufferView": 2,
      "byteOffset": 376692,
      "componentType": 5126,
      "count": 31391,
      "max": [
        0.999999463558197,
        0.9999988079071045,
        0.9999783635139465
      ],
      "min": [
        -0.9999864101409912,
        -0.9999971985816956,
        -0.9999995827674866
      ],
      "type": "VEC3"
    },
    {
      "bufferView": 1,
      "componentType": 5126,
      "count": 31391,
      "max": [
        0.9987999796867371,
        1.9911000728607178
      ],
      "min": [
        -1.2741999626159668,
        -0.6420999765396118
      ],
      "type": "VEC2"
    },
    {
      "bufferView": 0,
      "componentType": 5125,
      "count": 66489,
      "type": "SCALAR"
    }
  ],
  "asset": {
    "extras": {
      "author": "Karnage (https://sketchfab.com/Ring1)",
      "license": "CC-BY-4.0 (http://creativecommons.org/licenses/by/4.0/)",
      "source": "https://sketchfab.com/3d-models/t90-8f577602505248f79e2b8a95f24b33fb",
      "title": "T90"
    },
    "generator": "Sketchfab-12.66.0",
    "version": "2.0"
  },
  "bufferViews": [
    {
      "buffer": 0,
      "byteLength": 265956,
      "name": "floatBufferViews",
      "target": 34963
    },
    {
      "buffer": 0,
      "byteLength": 251128,
      "byteOffset": 265956,
      "byteStride": 8,
      "name": "floatBufferViews",
      "target": 34962
    },
    {
      "buffer": 0,
      "byteLength": 753384,
      "byteOffset": 517084,
      "byteStride": 12,
      "name": "floatBufferViews",
      "target": 34962
    }
  ],
  "buffers": [
    {
      "byteLength": 1270468,
      "uri": "scene.bin"
    }
  ],
  "images": [
    {
      "uri": "textures/8430f8ee_dds_baseColor.jpeg"
    }
  ],
  "materials": [
    {
      "doubleSided": true,
      "name": "8430f8ee_dds",
      "pbrMetallicRoughness": {
        "baseColorTexture": {
          "index": 0
        },
        "metallicFactor": 0.0,
        "roughnessFactor": 0.91
      }
    }
  ],
  "meshes": [
    {
      "name": "Object_0",
      "primitives": [
        {
          "attributes": {
            "NORMAL": 1,
            "POSITION": 0,
            "TEXCOORD_0": 2
          },
          "indices": 3,
          "material": 0,
          "mode": 4
        }
      ]
    }
  ],
  "nodes": [
    {
      "children": [
        1
      ],
      "matrix": [
        0.7239466309547424,
        0.0,
        0.0,
        0.0,
        0.0,
        3.6582582588487063e-16,
        -0.7239466309547424,
        0.0,
        0.0,
        0.7239466309547424,
        3.6582582588487063e-16,
        0.0,
        0.0,
        -5.546678239835239e-32,
        2.498001805406602e-16,
        1.0
      ],
      "name": "Sketchfab_model"
    },
    {
      "children": [
        2
      ],
      "name": "root"
    },
    {
      "children": [
        3
      ],
      "matrix": [
        1.0,
        0.0,
        0.0,
        0.0,
        0.0,
        2.220446049250313e-16,
        1.0,
        0.0,
        0.0,
        -1.0,
        2.220446049250313e-16,
        0.0,
        0.0,
        0.0,
        0.0,
        1.0
      ],
      "name": "GLTF_SceneRootNode"
    },
    {
      "children": [
        4
      ],
      "matrix": [
        1.0,
        0.0,
        0.0,
        0.0,
        0.0,
        1.0,
        0.0,
        0.0,
        0.0,
        0.0,
        1.0,
        0.0,
        0.0,
        0.1399998664855957,
        13.489999771118164,
        1.0
      ],
      "name": "t-90a(Elements_of_war)_2"
    },
    {
      "mesh": 0,
      "name": "Object_4"
    }
  ],
  "samplers": [
    {
      "magFilter": 9729,
      "minFilter": 9987,
      "wrapS": 10497,
      "wrapT": 10497
    }
  ],
  "scene": 0,
  "scenes": [
    {
      "name": "Sketchfab_Scene",
      "nodes": [
        0
      ]
    }
  ],
  "textures": [
    {
      "sampler": 0,
      "source": 0
    }
  ]
}
